<mxfile host="app.diagrams.net" modified="2023-04-25T16:57:21.479Z" agent="Mozilla/5.0 (Windows NT 10.0; Win64; x64) AppleWebKit/537.36 (KHTML, like Gecko) Chrome/111.0.0.0 Safari/537.36 OPR/97.0.0.0" etag="W_XPW7RmnDeyM3cx-bwS" version="21.2.1" type="github">
  <diagram id="R2lEEEUBdFMjLlhIrx00" name="Page-1">
    <mxGraphModel dx="2284" dy="758" grid="1" gridSize="10" guides="1" tooltips="1" connect="1" arrows="1" fold="1" page="1" pageScale="1" pageWidth="850" pageHeight="1100" math="0" shadow="0" extFonts="Permanent Marker^https://fonts.googleapis.com/css?family=Permanent+Marker">
      <root>
        <object label="" id="0">
          <mxCell />
        </object>
        <mxCell id="1" parent="0" />
        <mxCell id="efmjXE_ut0mCJMNtFDS2-17" style="edgeStyle=orthogonalEdgeStyle;rounded=0;orthogonalLoop=1;jettySize=auto;html=1;exitX=0.5;exitY=0;exitDx=0;exitDy=0;" parent="1" source="efmjXE_ut0mCJMNtFDS2-1" target="efmjXE_ut0mCJMNtFDS2-14" edge="1">
          <mxGeometry relative="1" as="geometry" />
        </mxCell>
        <mxCell id="efmjXE_ut0mCJMNtFDS2-19" style="edgeStyle=orthogonalEdgeStyle;rounded=0;orthogonalLoop=1;jettySize=auto;html=1;exitX=0.75;exitY=1;exitDx=0;exitDy=0;entryX=0.5;entryY=0;entryDx=0;entryDy=0;" parent="1" source="efmjXE_ut0mCJMNtFDS2-1" target="efmjXE_ut0mCJMNtFDS2-7" edge="1">
          <mxGeometry relative="1" as="geometry" />
        </mxCell>
        <mxCell id="efmjXE_ut0mCJMNtFDS2-21" style="edgeStyle=orthogonalEdgeStyle;rounded=0;orthogonalLoop=1;jettySize=auto;html=1;exitX=1;exitY=0.167;exitDx=0;exitDy=0;entryX=0;entryY=0.5;entryDx=0;entryDy=0;exitPerimeter=0;" parent="1" source="efmjXE_ut0mCJMNtFDS2-1" target="efmjXE_ut0mCJMNtFDS2-20" edge="1">
          <mxGeometry relative="1" as="geometry" />
        </mxCell>
        <mxCell id="efmjXE_ut0mCJMNtFDS2-31" style="edgeStyle=orthogonalEdgeStyle;rounded=0;orthogonalLoop=1;jettySize=auto;html=1;exitX=0.25;exitY=0;exitDx=0;exitDy=0;entryX=0.5;entryY=1;entryDx=0;entryDy=0;" parent="1" source="efmjXE_ut0mCJMNtFDS2-1" target="efmjXE_ut0mCJMNtFDS2-15" edge="1">
          <mxGeometry relative="1" as="geometry" />
        </mxCell>
        <mxCell id="efmjXE_ut0mCJMNtFDS2-53" style="edgeStyle=orthogonalEdgeStyle;rounded=0;orthogonalLoop=1;jettySize=auto;html=1;exitX=0.75;exitY=0;exitDx=0;exitDy=0;entryX=0;entryY=0.5;entryDx=0;entryDy=0;" parent="1" source="efmjXE_ut0mCJMNtFDS2-1" target="efmjXE_ut0mCJMNtFDS2-13" edge="1">
          <mxGeometry relative="1" as="geometry" />
        </mxCell>
        <mxCell id="efmjXE_ut0mCJMNtFDS2-67" style="edgeStyle=orthogonalEdgeStyle;rounded=0;orthogonalLoop=1;jettySize=auto;html=1;exitX=0.25;exitY=1;exitDx=0;exitDy=0;shape=link;" parent="1" source="efmjXE_ut0mCJMNtFDS2-1" target="efmjXE_ut0mCJMNtFDS2-66" edge="1">
          <mxGeometry relative="1" as="geometry" />
        </mxCell>
        <mxCell id="Hu5kYknRP80J4fNbIx4V-77" style="edgeStyle=orthogonalEdgeStyle;rounded=0;orthogonalLoop=1;jettySize=auto;html=1;exitX=0;exitY=0.75;exitDx=0;exitDy=0;entryX=1;entryY=0.5;entryDx=0;entryDy=0;" edge="1" parent="1" source="efmjXE_ut0mCJMNtFDS2-1" target="Hu5kYknRP80J4fNbIx4V-76">
          <mxGeometry relative="1" as="geometry" />
        </mxCell>
        <mxCell id="Hu5kYknRP80J4fNbIx4V-79" style="edgeStyle=orthogonalEdgeStyle;rounded=0;orthogonalLoop=1;jettySize=auto;html=1;exitX=1;exitY=0.5;exitDx=0;exitDy=0;entryX=0;entryY=0.5;entryDx=0;entryDy=0;shape=link;" edge="1" parent="1" source="efmjXE_ut0mCJMNtFDS2-1" target="Hu5kYknRP80J4fNbIx4V-78">
          <mxGeometry relative="1" as="geometry" />
        </mxCell>
        <mxCell id="Hu5kYknRP80J4fNbIx4V-120" style="edgeStyle=orthogonalEdgeStyle;rounded=0;orthogonalLoop=1;jettySize=auto;html=1;exitX=0;exitY=0.5;exitDx=0;exitDy=0;entryX=0.5;entryY=1;entryDx=0;entryDy=0;" edge="1" parent="1" source="efmjXE_ut0mCJMNtFDS2-1" target="efmjXE_ut0mCJMNtFDS2-11">
          <mxGeometry relative="1" as="geometry" />
        </mxCell>
        <mxCell id="efmjXE_ut0mCJMNtFDS2-1" value="Patient" style="whiteSpace=wrap;html=1;align=center;fillColor=#f5f5f5;fontColor=#333333;strokeColor=#666666;" parent="1" vertex="1">
          <mxGeometry x="-140" y="140" width="110" height="60" as="geometry" />
        </mxCell>
        <mxCell id="efmjXE_ut0mCJMNtFDS2-24" style="edgeStyle=orthogonalEdgeStyle;rounded=0;orthogonalLoop=1;jettySize=auto;html=1;exitX=0;exitY=0.25;exitDx=0;exitDy=0;entryX=1;entryY=0.5;entryDx=0;entryDy=0;" parent="1" source="efmjXE_ut0mCJMNtFDS2-2" target="efmjXE_ut0mCJMNtFDS2-22" edge="1">
          <mxGeometry relative="1" as="geometry" />
        </mxCell>
        <mxCell id="efmjXE_ut0mCJMNtFDS2-29" style="edgeStyle=orthogonalEdgeStyle;rounded=0;orthogonalLoop=1;jettySize=auto;html=1;exitX=0.5;exitY=1;exitDx=0;exitDy=0;entryX=0.5;entryY=0;entryDx=0;entryDy=0;" parent="1" source="efmjXE_ut0mCJMNtFDS2-2" target="efmjXE_ut0mCJMNtFDS2-28" edge="1">
          <mxGeometry relative="1" as="geometry" />
        </mxCell>
        <mxCell id="efmjXE_ut0mCJMNtFDS2-33" style="edgeStyle=orthogonalEdgeStyle;rounded=0;orthogonalLoop=1;jettySize=auto;html=1;exitX=1;exitY=0.75;exitDx=0;exitDy=0;entryX=0.5;entryY=0;entryDx=0;entryDy=0;" parent="1" source="efmjXE_ut0mCJMNtFDS2-2" target="efmjXE_ut0mCJMNtFDS2-25" edge="1">
          <mxGeometry relative="1" as="geometry" />
        </mxCell>
        <mxCell id="efmjXE_ut0mCJMNtFDS2-34" style="edgeStyle=orthogonalEdgeStyle;rounded=0;orthogonalLoop=1;jettySize=auto;html=1;exitX=1;exitY=0.5;exitDx=0;exitDy=0;entryX=0;entryY=0.5;entryDx=0;entryDy=0;" parent="1" source="efmjXE_ut0mCJMNtFDS2-2" target="efmjXE_ut0mCJMNtFDS2-26" edge="1">
          <mxGeometry relative="1" as="geometry" />
        </mxCell>
        <mxCell id="Hu5kYknRP80J4fNbIx4V-4" style="edgeStyle=orthogonalEdgeStyle;rounded=0;orthogonalLoop=1;jettySize=auto;html=1;exitX=0;exitY=0.75;exitDx=0;exitDy=0;entryX=1;entryY=0.5;entryDx=0;entryDy=0;" edge="1" parent="1" source="efmjXE_ut0mCJMNtFDS2-2" target="Hu5kYknRP80J4fNbIx4V-3">
          <mxGeometry relative="1" as="geometry" />
        </mxCell>
        <mxCell id="Hu5kYknRP80J4fNbIx4V-17" style="edgeStyle=orthogonalEdgeStyle;rounded=0;orthogonalLoop=1;jettySize=auto;html=1;exitX=0.75;exitY=1;exitDx=0;exitDy=0;entryX=0.5;entryY=0;entryDx=0;entryDy=0;" edge="1" parent="1" source="efmjXE_ut0mCJMNtFDS2-2" target="efmjXE_ut0mCJMNtFDS2-27">
          <mxGeometry relative="1" as="geometry" />
        </mxCell>
        <mxCell id="Hu5kYknRP80J4fNbIx4V-66" style="edgeStyle=orthogonalEdgeStyle;rounded=0;orthogonalLoop=1;jettySize=auto;html=1;exitX=0.25;exitY=1;exitDx=0;exitDy=0;entryX=1;entryY=0.5;entryDx=0;entryDy=0;" edge="1" parent="1" source="efmjXE_ut0mCJMNtFDS2-2" target="Hu5kYknRP80J4fNbIx4V-64">
          <mxGeometry relative="1" as="geometry" />
        </mxCell>
        <mxCell id="Hu5kYknRP80J4fNbIx4V-97" style="edgeStyle=orthogonalEdgeStyle;rounded=0;orthogonalLoop=1;jettySize=auto;html=1;exitX=0.5;exitY=0;exitDx=0;exitDy=0;entryX=0.5;entryY=1;entryDx=0;entryDy=0;shape=link;" edge="1" parent="1" source="efmjXE_ut0mCJMNtFDS2-2" target="Hu5kYknRP80J4fNbIx4V-95">
          <mxGeometry relative="1" as="geometry" />
        </mxCell>
        <mxCell id="efmjXE_ut0mCJMNtFDS2-2" value="Doctor" style="whiteSpace=wrap;html=1;align=center;fillColor=#f5f5f5;fontColor=#333333;strokeColor=#666666;" parent="1" vertex="1">
          <mxGeometry x="490" y="515" width="110" height="60" as="geometry" />
        </mxCell>
        <mxCell id="efmjXE_ut0mCJMNtFDS2-7" value="PatientID" style="ellipse;whiteSpace=wrap;html=1;align=center;fontStyle=4;fillColor=#f8cecc;strokeColor=#b85450;" parent="1" vertex="1">
          <mxGeometry x="-95" y="270" width="112.5" height="50" as="geometry" />
        </mxCell>
        <mxCell id="efmjXE_ut0mCJMNtFDS2-11" value="Patient_name" style="ellipse;whiteSpace=wrap;html=1;align=center;fillColor=#dae8fc;strokeColor=#6c8ebf;" parent="1" vertex="1">
          <mxGeometry x="-320" y="100" width="100" height="40" as="geometry" />
        </mxCell>
        <mxCell id="efmjXE_ut0mCJMNtFDS2-13" value="Patient_address" style="ellipse;whiteSpace=wrap;html=1;align=center;fillColor=#dae8fc;strokeColor=#6c8ebf;" parent="1" vertex="1">
          <mxGeometry x="-50" y="10" width="100" height="40" as="geometry" />
        </mxCell>
        <mxCell id="efmjXE_ut0mCJMNtFDS2-14" value="Gender" style="ellipse;whiteSpace=wrap;html=1;align=center;fillColor=#dae8fc;strokeColor=#6c8ebf;" parent="1" vertex="1">
          <mxGeometry x="-182.5" y="10" width="100" height="40" as="geometry" />
        </mxCell>
        <mxCell id="efmjXE_ut0mCJMNtFDS2-15" value="DOB" style="ellipse;whiteSpace=wrap;html=1;align=center;fillColor=#dae8fc;strokeColor=#6c8ebf;" parent="1" vertex="1">
          <mxGeometry x="-240" y="60" width="100" height="40" as="geometry" />
        </mxCell>
        <mxCell id="efmjXE_ut0mCJMNtFDS2-20" value="Patient_phone" style="ellipse;whiteSpace=wrap;html=1;align=center;fillColor=#dae8fc;strokeColor=#6c8ebf;" parent="1" vertex="1">
          <mxGeometry x="20" y="60" width="100" height="40" as="geometry" />
        </mxCell>
        <mxCell id="efmjXE_ut0mCJMNtFDS2-22" value="DoctorID" style="ellipse;whiteSpace=wrap;html=1;align=center;fontStyle=4;fillColor=#f8cecc;strokeColor=#b85450;" parent="1" vertex="1">
          <mxGeometry x="315" y="465" width="110" height="50" as="geometry" />
        </mxCell>
        <mxCell id="efmjXE_ut0mCJMNtFDS2-25" value="Doctor_phone" style="ellipse;whiteSpace=wrap;html=1;align=center;fillColor=#dae8fc;strokeColor=#6c8ebf;" parent="1" vertex="1">
          <mxGeometry x="720" y="580" width="100" height="40" as="geometry" />
        </mxCell>
        <mxCell id="efmjXE_ut0mCJMNtFDS2-26" value="Doctor_address" style="ellipse;whiteSpace=wrap;html=1;align=center;fillColor=#dae8fc;strokeColor=#6c8ebf;" parent="1" vertex="1">
          <mxGeometry x="680" y="460" width="100" height="40" as="geometry" />
        </mxCell>
        <mxCell id="efmjXE_ut0mCJMNtFDS2-27" value="Specialty" style="ellipse;shape=doubleEllipse;margin=3;whiteSpace=wrap;html=1;align=center;fillColor=#d5e8d4;strokeColor=#82b366;" parent="1" vertex="1">
          <mxGeometry x="630" y="635" width="100" height="40" as="geometry" />
        </mxCell>
        <mxCell id="efmjXE_ut0mCJMNtFDS2-28" value="Doctor_name" style="ellipse;whiteSpace=wrap;html=1;align=center;fillColor=#dae8fc;strokeColor=#6c8ebf;" parent="1" vertex="1">
          <mxGeometry x="550" y="690" width="100" height="40" as="geometry" />
        </mxCell>
        <mxCell id="efmjXE_ut0mCJMNtFDS2-38" value="Time" style="ellipse;whiteSpace=wrap;html=1;align=center;fillColor=#dae8fc;strokeColor=#6c8ebf;" parent="1" vertex="1">
          <mxGeometry x="-82.5" y="620" width="100" height="40" as="geometry" />
        </mxCell>
        <mxCell id="efmjXE_ut0mCJMNtFDS2-41" style="edgeStyle=orthogonalEdgeStyle;rounded=0;orthogonalLoop=1;jettySize=auto;html=1;exitX=0.5;exitY=1;exitDx=0;exitDy=0;entryX=0.5;entryY=0;entryDx=0;entryDy=0;" parent="1" source="efmjXE_ut0mCJMNtFDS2-39" target="efmjXE_ut0mCJMNtFDS2-38" edge="1">
          <mxGeometry relative="1" as="geometry" />
        </mxCell>
        <mxCell id="efmjXE_ut0mCJMNtFDS2-39" value="DateofAppointment" style="ellipse;whiteSpace=wrap;html=1;align=center;fillColor=#dae8fc;strokeColor=#6c8ebf;" parent="1" vertex="1">
          <mxGeometry x="-95" y="550" width="125" height="40" as="geometry" />
        </mxCell>
        <mxCell id="efmjXE_ut0mCJMNtFDS2-58" value="n" style="text;html=1;align=center;verticalAlign=middle;resizable=0;points=[];autosize=1;strokeColor=none;fillColor=none;" parent="1" vertex="1">
          <mxGeometry x="-210" y="380" width="30" height="30" as="geometry" />
        </mxCell>
        <mxCell id="efmjXE_ut0mCJMNtFDS2-60" value="1" style="text;html=1;align=center;verticalAlign=middle;resizable=0;points=[];autosize=1;strokeColor=none;fillColor=none;" parent="1" vertex="1">
          <mxGeometry x="-220" y="290" width="30" height="30" as="geometry" />
        </mxCell>
        <mxCell id="efmjXE_ut0mCJMNtFDS2-64" style="edgeStyle=orthogonalEdgeStyle;rounded=0;orthogonalLoop=1;jettySize=auto;html=1;exitX=0.75;exitY=1;exitDx=0;exitDy=0;entryX=0.5;entryY=0;entryDx=0;entryDy=0;" parent="1" source="efmjXE_ut0mCJMNtFDS2-61" target="efmjXE_ut0mCJMNtFDS2-39" edge="1">
          <mxGeometry relative="1" as="geometry" />
        </mxCell>
        <mxCell id="efmjXE_ut0mCJMNtFDS2-65" style="edgeStyle=orthogonalEdgeStyle;rounded=0;orthogonalLoop=1;jettySize=auto;html=1;exitX=0;exitY=0.5;exitDx=0;exitDy=0;entryX=0.5;entryY=0;entryDx=0;entryDy=0;" parent="1" source="efmjXE_ut0mCJMNtFDS2-61" target="Hu5kYknRP80J4fNbIx4V-1" edge="1">
          <mxGeometry relative="1" as="geometry">
            <mxPoint x="-240" y="560" as="targetPoint" />
          </mxGeometry>
        </mxCell>
        <mxCell id="efmjXE_ut0mCJMNtFDS2-68" style="edgeStyle=orthogonalEdgeStyle;rounded=0;orthogonalLoop=1;jettySize=auto;html=1;exitX=0.25;exitY=0;exitDx=0;exitDy=0;entryX=0.5;entryY=1;entryDx=0;entryDy=0;shape=link;width=6;" parent="1" source="efmjXE_ut0mCJMNtFDS2-61" target="efmjXE_ut0mCJMNtFDS2-66" edge="1">
          <mxGeometry relative="1" as="geometry" />
        </mxCell>
        <mxCell id="Hu5kYknRP80J4fNbIx4V-5" style="edgeStyle=orthogonalEdgeStyle;rounded=0;orthogonalLoop=1;jettySize=auto;html=1;exitX=1;exitY=0.5;exitDx=0;exitDy=0;entryX=0;entryY=0.5;entryDx=0;entryDy=0;shape=link;width=6;" edge="1" parent="1" source="efmjXE_ut0mCJMNtFDS2-61" target="Hu5kYknRP80J4fNbIx4V-3">
          <mxGeometry relative="1" as="geometry" />
        </mxCell>
        <mxCell id="Hu5kYknRP80J4fNbIx4V-50" style="edgeStyle=orthogonalEdgeStyle;rounded=0;orthogonalLoop=1;jettySize=auto;html=1;exitX=0.25;exitY=1;exitDx=0;exitDy=0;entryX=0.5;entryY=0;entryDx=0;entryDy=0;shape=link;" edge="1" parent="1" source="efmjXE_ut0mCJMNtFDS2-61" target="Hu5kYknRP80J4fNbIx4V-52">
          <mxGeometry relative="1" as="geometry">
            <mxPoint x="-195" y="490" as="targetPoint" />
          </mxGeometry>
        </mxCell>
        <mxCell id="efmjXE_ut0mCJMNtFDS2-61" value="Appointment" style="whiteSpace=wrap;html=1;align=center;fillColor=#f5f5f5;fontColor=#333333;strokeColor=#666666;" parent="1" vertex="1">
          <mxGeometry x="-150" y="460" width="130" height="60" as="geometry" />
        </mxCell>
        <mxCell id="efmjXE_ut0mCJMNtFDS2-66" value="Books" style="shape=rhombus;perimeter=rhombusPerimeter;whiteSpace=wrap;html=1;align=center;fillColor=#76608a;strokeColor=#432D57;fontColor=#ffffff;" parent="1" vertex="1">
          <mxGeometry x="-270" y="320" width="120" height="60" as="geometry" />
        </mxCell>
        <mxCell id="Hu5kYknRP80J4fNbIx4V-1" value="AppointmentID" style="ellipse;whiteSpace=wrap;html=1;align=center;fillColor=#ffe6cc;strokeColor=#d79b00;" vertex="1" parent="1">
          <mxGeometry x="-290" y="520" width="100" height="40" as="geometry" />
        </mxCell>
        <mxCell id="Hu5kYknRP80J4fNbIx4V-3" value="Assigns" style="shape=rhombus;perimeter=rhombusPerimeter;whiteSpace=wrap;html=1;align=center;fillColor=#76608a;strokeColor=#432D57;fontColor=#ffffff;" vertex="1" parent="1">
          <mxGeometry x="190" y="530" width="120" height="60" as="geometry" />
        </mxCell>
        <mxCell id="Hu5kYknRP80J4fNbIx4V-57" style="edgeStyle=orthogonalEdgeStyle;rounded=0;orthogonalLoop=1;jettySize=auto;html=1;exitX=1;exitY=0.5;exitDx=0;exitDy=0;entryX=0.5;entryY=0;entryDx=0;entryDy=0;" edge="1" parent="1" source="Hu5kYknRP80J4fNbIx4V-51" target="Hu5kYknRP80J4fNbIx4V-56">
          <mxGeometry relative="1" as="geometry" />
        </mxCell>
        <mxCell id="Hu5kYknRP80J4fNbIx4V-67" style="edgeStyle=orthogonalEdgeStyle;rounded=0;orthogonalLoop=1;jettySize=auto;html=1;exitX=0.5;exitY=1;exitDx=0;exitDy=0;entryX=0;entryY=0.5;entryDx=0;entryDy=0;shape=link;" edge="1" parent="1" source="Hu5kYknRP80J4fNbIx4V-51" target="Hu5kYknRP80J4fNbIx4V-64">
          <mxGeometry relative="1" as="geometry" />
        </mxCell>
        <mxCell id="Hu5kYknRP80J4fNbIx4V-87" style="edgeStyle=orthogonalEdgeStyle;rounded=0;orthogonalLoop=1;jettySize=auto;html=1;exitX=0;exitY=0.5;exitDx=0;exitDy=0;entryX=0.5;entryY=0;entryDx=0;entryDy=0;" edge="1" parent="1" source="Hu5kYknRP80J4fNbIx4V-51" target="Hu5kYknRP80J4fNbIx4V-53">
          <mxGeometry relative="1" as="geometry" />
        </mxCell>
        <mxCell id="Hu5kYknRP80J4fNbIx4V-90" style="edgeStyle=orthogonalEdgeStyle;rounded=0;orthogonalLoop=1;jettySize=auto;html=1;exitX=0.5;exitY=0;exitDx=0;exitDy=0;entryX=0.5;entryY=1;entryDx=0;entryDy=0;" edge="1" parent="1" source="Hu5kYknRP80J4fNbIx4V-51" target="Hu5kYknRP80J4fNbIx4V-52">
          <mxGeometry relative="1" as="geometry" />
        </mxCell>
        <mxCell id="Hu5kYknRP80J4fNbIx4V-122" style="edgeStyle=orthogonalEdgeStyle;rounded=0;orthogonalLoop=1;jettySize=auto;html=1;exitX=0.25;exitY=0;exitDx=0;exitDy=0;" edge="1" parent="1" source="Hu5kYknRP80J4fNbIx4V-51" target="Hu5kYknRP80J4fNbIx4V-121">
          <mxGeometry relative="1" as="geometry" />
        </mxCell>
        <mxCell id="Hu5kYknRP80J4fNbIx4V-51" value="Location" style="whiteSpace=wrap;html=1;align=center;fillColor=#f5f5f5;fontColor=#333333;strokeColor=#666666;" vertex="1" parent="1">
          <mxGeometry x="-270" y="840" width="110" height="60" as="geometry" />
        </mxCell>
        <mxCell id="Hu5kYknRP80J4fNbIx4V-52" value="Pick_loc" style="shape=rhombus;perimeter=rhombusPerimeter;whiteSpace=wrap;html=1;align=center;fillColor=#76608a;strokeColor=#432D57;fontColor=#ffffff;" vertex="1" parent="1">
          <mxGeometry x="-275" y="675" width="120" height="60" as="geometry" />
        </mxCell>
        <mxCell id="Hu5kYknRP80J4fNbIx4V-53" value="Loc_ID" style="ellipse;whiteSpace=wrap;html=1;align=center;fillColor=#f8cecc;strokeColor=#b85450;" vertex="1" parent="1">
          <mxGeometry x="-420" y="860" width="100" height="40" as="geometry" />
        </mxCell>
        <mxCell id="Hu5kYknRP80J4fNbIx4V-56" value="Loc_address" style="ellipse;whiteSpace=wrap;html=1;align=center;fillColor=#dae8fc;strokeColor=#6c8ebf;" vertex="1" parent="1">
          <mxGeometry x="-82.5" y="860" width="100" height="40" as="geometry" />
        </mxCell>
        <mxCell id="Hu5kYknRP80J4fNbIx4V-64" value="Works_at" style="shape=rhombus;perimeter=rhombusPerimeter;whiteSpace=wrap;html=1;align=center;fillColor=#76608a;fontColor=#ffffff;strokeColor=#432D57;" vertex="1" parent="1">
          <mxGeometry x="90" y="890" width="120" height="60" as="geometry" />
        </mxCell>
        <mxCell id="Hu5kYknRP80J4fNbIx4V-81" style="edgeStyle=orthogonalEdgeStyle;rounded=0;orthogonalLoop=1;jettySize=auto;html=1;exitX=0;exitY=0.5;exitDx=0;exitDy=0;entryX=1;entryY=0.5;entryDx=0;entryDy=0;shape=link;" edge="1" parent="1" source="Hu5kYknRP80J4fNbIx4V-70" target="Hu5kYknRP80J4fNbIx4V-78">
          <mxGeometry relative="1" as="geometry" />
        </mxCell>
        <mxCell id="Hu5kYknRP80J4fNbIx4V-82" style="edgeStyle=orthogonalEdgeStyle;rounded=0;orthogonalLoop=1;jettySize=auto;html=1;exitX=0.75;exitY=0;exitDx=0;exitDy=0;entryX=0;entryY=0.5;entryDx=0;entryDy=0;" edge="1" parent="1" source="Hu5kYknRP80J4fNbIx4V-70" target="Hu5kYknRP80J4fNbIx4V-74">
          <mxGeometry relative="1" as="geometry" />
        </mxCell>
        <mxCell id="Hu5kYknRP80J4fNbIx4V-83" style="edgeStyle=orthogonalEdgeStyle;rounded=0;orthogonalLoop=1;jettySize=auto;html=1;exitX=1;exitY=0.25;exitDx=0;exitDy=0;entryX=0;entryY=0.5;entryDx=0;entryDy=0;" edge="1" parent="1" source="Hu5kYknRP80J4fNbIx4V-70" target="Hu5kYknRP80J4fNbIx4V-72">
          <mxGeometry relative="1" as="geometry" />
        </mxCell>
        <mxCell id="Hu5kYknRP80J4fNbIx4V-84" style="edgeStyle=orthogonalEdgeStyle;rounded=0;orthogonalLoop=1;jettySize=auto;html=1;exitX=1;exitY=0.75;exitDx=0;exitDy=0;entryX=0.5;entryY=0;entryDx=0;entryDy=0;" edge="1" parent="1" source="Hu5kYknRP80J4fNbIx4V-70" target="Hu5kYknRP80J4fNbIx4V-71">
          <mxGeometry relative="1" as="geometry" />
        </mxCell>
        <mxCell id="Hu5kYknRP80J4fNbIx4V-98" style="edgeStyle=orthogonalEdgeStyle;rounded=0;orthogonalLoop=1;jettySize=auto;html=1;exitX=0.5;exitY=1;exitDx=0;exitDy=0;entryX=0.5;entryY=0;entryDx=0;entryDy=0;shape=link;" edge="1" parent="1" source="Hu5kYknRP80J4fNbIx4V-70" target="Hu5kYknRP80J4fNbIx4V-95">
          <mxGeometry relative="1" as="geometry" />
        </mxCell>
        <mxCell id="Hu5kYknRP80J4fNbIx4V-70" value="Treament" style="whiteSpace=wrap;html=1;align=center;fillColor=#f5f5f5;fontColor=#333333;strokeColor=#666666;" vertex="1" parent="1">
          <mxGeometry x="480" y="140" width="130" height="60" as="geometry" />
        </mxCell>
        <mxCell id="Hu5kYknRP80J4fNbIx4V-71" value="Treatment_date" style="ellipse;whiteSpace=wrap;html=1;align=center;fillColor=#dae8fc;strokeColor=#6c8ebf;" vertex="1" parent="1">
          <mxGeometry x="620" y="230" width="100" height="40" as="geometry" />
        </mxCell>
        <mxCell id="Hu5kYknRP80J4fNbIx4V-72" value="Treatment_id" style="ellipse;whiteSpace=wrap;html=1;align=center;fillColor=#f8cecc;strokeColor=#b85450;" vertex="1" parent="1">
          <mxGeometry x="660" y="110" width="100" height="40" as="geometry" />
        </mxCell>
        <mxCell id="Hu5kYknRP80J4fNbIx4V-74" value="Treatment_log" style="ellipse;whiteSpace=wrap;html=1;align=center;fillColor=#dae8fc;strokeColor=#6c8ebf;" vertex="1" parent="1">
          <mxGeometry x="670" y="40" width="100" height="40" as="geometry" />
        </mxCell>
        <mxCell id="Hu5kYknRP80J4fNbIx4V-76" value="Medical_history" style="ellipse;whiteSpace=wrap;html=1;align=center;fillColor=#dae8fc;strokeColor=#6c8ebf;" vertex="1" parent="1">
          <mxGeometry x="-370" y="180" width="100" height="40" as="geometry" />
        </mxCell>
        <mxCell id="Hu5kYknRP80J4fNbIx4V-78" value="Takes" style="shape=rhombus;perimeter=rhombusPerimeter;whiteSpace=wrap;html=1;align=center;fillColor=#76608a;strokeColor=#432D57;fontColor=#ffffff;" vertex="1" parent="1">
          <mxGeometry x="180" y="80" width="120" height="60" as="geometry" />
        </mxCell>
        <mxCell id="Hu5kYknRP80J4fNbIx4V-85" value="1" style="text;html=1;align=center;verticalAlign=middle;resizable=0;points=[];autosize=1;strokeColor=none;fillColor=none;" vertex="1" parent="1">
          <mxGeometry x="150" y="80" width="30" height="30" as="geometry" />
        </mxCell>
        <mxCell id="Hu5kYknRP80J4fNbIx4V-86" value="n" style="text;html=1;align=center;verticalAlign=middle;resizable=0;points=[];autosize=1;strokeColor=none;fillColor=none;" vertex="1" parent="1">
          <mxGeometry x="310" y="80" width="30" height="30" as="geometry" />
        </mxCell>
        <mxCell id="Hu5kYknRP80J4fNbIx4V-88" value="1" style="text;html=1;align=center;verticalAlign=middle;resizable=0;points=[];autosize=1;strokeColor=none;fillColor=none;" vertex="1" parent="1">
          <mxGeometry x="330" y="535" width="30" height="30" as="geometry" />
        </mxCell>
        <mxCell id="Hu5kYknRP80J4fNbIx4V-89" value="n" style="text;html=1;align=center;verticalAlign=middle;resizable=0;points=[];autosize=1;strokeColor=none;fillColor=none;" vertex="1" parent="1">
          <mxGeometry x="150" y="530" width="30" height="30" as="geometry" />
        </mxCell>
        <mxCell id="Hu5kYknRP80J4fNbIx4V-91" value="1" style="text;html=1;align=center;verticalAlign=middle;resizable=0;points=[];autosize=1;strokeColor=none;fillColor=none;" vertex="1" parent="1">
          <mxGeometry x="-225" y="750" width="30" height="30" as="geometry" />
        </mxCell>
        <mxCell id="Hu5kYknRP80J4fNbIx4V-92" value="n" style="text;html=1;align=center;verticalAlign=middle;resizable=0;points=[];autosize=1;strokeColor=none;fillColor=none;" vertex="1" parent="1">
          <mxGeometry x="-220" y="650" width="30" height="30" as="geometry" />
        </mxCell>
        <mxCell id="Hu5kYknRP80J4fNbIx4V-93" value="1" style="text;html=1;align=center;verticalAlign=middle;resizable=0;points=[];autosize=1;strokeColor=none;fillColor=none;" vertex="1" parent="1">
          <mxGeometry x="65" y="900" width="30" height="30" as="geometry" />
        </mxCell>
        <mxCell id="Hu5kYknRP80J4fNbIx4V-94" value="n" style="text;html=1;align=center;verticalAlign=middle;resizable=0;points=[];autosize=1;strokeColor=none;fillColor=none;" vertex="1" parent="1">
          <mxGeometry x="225" y="900" width="30" height="30" as="geometry" />
        </mxCell>
        <mxCell id="Hu5kYknRP80J4fNbIx4V-95" value="Gives" style="shape=rhombus;perimeter=rhombusPerimeter;whiteSpace=wrap;html=1;align=center;fillColor=#76608a;strokeColor=#432D57;fontColor=#ffffff;" vertex="1" parent="1">
          <mxGeometry x="485" y="390" width="120" height="60" as="geometry" />
        </mxCell>
        <mxCell id="Hu5kYknRP80J4fNbIx4V-99" value="1" style="text;html=1;align=center;verticalAlign=middle;resizable=0;points=[];autosize=1;strokeColor=none;fillColor=none;" vertex="1" parent="1">
          <mxGeometry x="540" y="460" width="30" height="30" as="geometry" />
        </mxCell>
        <mxCell id="Hu5kYknRP80J4fNbIx4V-100" value="n" style="text;html=1;align=center;verticalAlign=middle;resizable=0;points=[];autosize=1;strokeColor=none;fillColor=none;" vertex="1" parent="1">
          <mxGeometry x="540" y="370" width="30" height="30" as="geometry" />
        </mxCell>
        <mxCell id="Hu5kYknRP80J4fNbIx4V-121" value="Loc_name" style="ellipse;whiteSpace=wrap;html=1;align=center;fillColor=#dae8fc;strokeColor=#6c8ebf;" vertex="1" parent="1">
          <mxGeometry x="-380" y="750" width="100" height="40" as="geometry" />
        </mxCell>
      </root>
    </mxGraphModel>
  </diagram>
</mxfile>
